<svg xmlns="http://www.w3.org/2000/svg" width="32" height="32" id="link">
  <g color="#000" font-family="sans-serif" font-weight="400">
    <path fill="#2b4255" fill-rule="evenodd" d="m36.674 1359.982-7 6 .652.76 7-6-.652-.76zm-6.244 10.123-.858.514 6 10 .858-.514-6-10zm19.412 7.784-10.5 3.5.316.947 10.5-3.5-.316-.947zm-6.27-20.621-.144.99 7.5 1.1.144-.99-7.5-1.1zm10.38 4.986a.5.5 0 0 0-.481.469l-.219 2.851a.5.5 0 1 0 .996.076l.22-2.851a.5.5 0 0 0-.517-.545zm-.472 6.102a.5.5 0 0 0-.478.468l-.25 3.25-.25 3.25a.5.5 0 1 0 .996.076l.25-3.25.25-3.25a.5.5 0 0 0-.518-.545z" overflow="visible" style="line-height:normal;text-indent:0;text-align:start;text-decoration-line:none;text-decoration-style:solid;text-decoration-color:#000;text-transform:none;block-progression:tb;isolation:auto;mix-blend-mode:normal" transform="translate(-25 -1353.362)"></path>
    <path fill="#f05542" d="M51.5 1374.361a2.508 2.508 0 0 0-2.5 2.5c0 1.375 1.125 2.5 2.5 2.5s2.5-1.125 2.5-2.5-1.125-2.5-2.5-2.5zm0 1c.834 0 1.5.666 1.5 1.5 0 .835-.666 1.5-1.5 1.5s-1.5-.665-1.5-1.5c0-.834.666-1.5 1.5-1.5z" overflow="visible" style="line-height:normal;text-indent:0;text-align:start;text-decoration-line:none;text-decoration-style:solid;text-decoration-color:#000;text-transform:none;block-progression:tb;isolation:auto;mix-blend-mode:normal" transform="translate(-25 -1353.362)"></path>
    <path fill="#2b4255" fill-rule="evenodd" d="m51.646 1362.008-7 7 .708.707 7-7-.708-.707zm-6.388 9.926-.516.857 5 3 .516-.857-5-3zm-14.213-3.07-.09.995 11 1 .09-.996-11-1z" overflow="visible" style="line-height:normal;text-indent:0;text-align:start;text-decoration-line:none;text-decoration-style:solid;text-decoration-color:#000;text-transform:none;block-progression:tb;isolation:auto;mix-blend-mode:normal" transform="translate(-25 -1353.362)"></path>
    <path fill="#f05542" d="M43.5 1368.361a2.508 2.508 0 0 0-2.5 2.5c0 1.375 1.125 2.5 2.5 2.5s2.5-1.125 2.5-2.5-1.125-2.5-2.5-2.5zm0 1c.834 0 1.5.666 1.5 1.5 0 .835-.666 1.5-1.5 1.5s-1.5-.665-1.5-1.5c0-.834.666-1.5 1.5-1.5zm-3.5-15c-2.203 0-4 1.797-4 4 0 2.203 1.797 4 4 4 2.203 0 4-1.797 4-4 0-2.203-1.797-4-4-4zm0 1c1.663 0 3 1.338 3 3 0 1.663-1.337 3-3 3s-3-1.337-3-3c0-1.662 1.337-3 3-3zm-2.5 24a2.508 2.508 0 0 0-2.5 2.5c0 1.375 1.125 2.5 2.5 2.5s2.5-1.125 2.5-2.5-1.125-2.5-2.5-2.5zm0 1c.834 0 1.5.666 1.5 1.5 0 .835-.666 1.5-1.5 1.5s-1.5-.665-1.5-1.5c0-.834.666-1.5 1.5-1.5zm15.5-23c-1.65 0-3 1.35-3 3 0 1.651 1.35 3 3 3s3-1.349 3-3c0-1.65-1.35-3-3-3zm0 1c1.11 0 2 .89 2 2 0 1.11-.89 2-2 2-1.11 0-2-.89-2-2 0-1.11.89-2 2-2zm-24 7c-1.65 0-3 1.35-3 3 0 1.651 1.35 3 3 3s3-1.349 3-3c0-1.65-1.35-3-3-3zm0 1c1.11 0 2 .89 2 2 0 1.11-.89 2-2 2-1.11 0-2-.89-2-2 0-1.11.89-2 2-2z" overflow="visible" style="line-height:normal;text-indent:0;text-align:start;text-decoration-line:none;text-decoration-style:solid;text-decoration-color:#000;text-transform:none;block-progression:tb;isolation:auto;mix-blend-mode:normal" transform="translate(-25 -1353.362)"></path>
  </g>
</svg>
